<svg id="Group_149" data-name="Group 149" xmlns="http://www.w3.org/2000/svg" xmlns:xlink="http://www.w3.org/1999/xlink" width="191.701" height="118.902" viewBox="0 0 191.701 118.902">
  <defs>
    <clipPath id="clip-path">
      <rect id="Rectangle_122" data-name="Rectangle 122" width="191.701" height="118.902" fill="none"/>
    </clipPath>
  </defs>
  <g id="Group_149-2" data-name="Group 149" clip-path="url(#clip-path)">
    <path id="Path_85" data-name="Path 85" d="M126.065,96.351h18.951v2.762H126.065Zm5.521-33.209c-.041.208-.083.453-.125.661s-.083.453-.125.657c-.042.25-.083.454-.121.7a3.582,3.582,0,0,0-.083.661c-.042.246-.083.5-.125.7-.042.249-.083.495-.125.7a5.4,5.4,0,0,0-.162.7c-.042.246-.083.5-.125.7-.042.25-.083.5-.125.741s-.083.495-.121.7c-.041.287-.083.5-.125.741a4.757,4.757,0,0,1-.166.741,5.1,5.1,0,0,1-.121.744c-.041.246-.083.491-.125.741-.083.537-.166,1.028-.287,1.565-.042.249-.083.495-.125.741-.083.537-.166,1.073-.287,1.61-.042.246-.083.533-.125.782a5.911,5.911,0,0,1-.166.824c-.041.246-.083.537-.125.782-.038.287-.079.578-.121.824a6.323,6.323,0,0,0-.166.866,6.361,6.361,0,0,1-.162.824c-.083.578-.166,1.111-.291,1.689-.042.287-.083.616-.121.865a8.339,8.339,0,0,0-.166.907c-.083.287-.083.574-.166.865-.042.287-.083.616-.121.907a6.891,6.891,0,0,0-.166.9,7.078,7.078,0,0,0-.166.907c-.121.62-.2,1.236-.329,1.855-.041.329-.125.616-.166.949a6.882,6.882,0,0,1-.163.945,7.408,7.408,0,0,1-.166.949c-.041.329-.079.661-.121.99a.241.241,0,0,0-.041.163h.865a3.483,3.483,0,0,0,.657,0,3.518,3.518,0,0,0,.662,0h10.01c.453,0,.907,0,1.36-.042a1.742,1.742,0,0,0,.657,0,3.454,3.454,0,0,0,.657,0,3.494,3.494,0,0,0,.661,0h3.545v-.2c0-.329.038-.658.038-.949a7.866,7.866,0,0,0,.083-.987c.041-.291.041-.619.083-.949.041-.291.041-.619.083-.907,0-.329.041-.62.041-.949.041-.287.041-.575.083-.907a7.391,7.391,0,0,1,.079-.907c0-.287.042-.575.042-.9.041-.578.083-1.156.125-1.731a6.016,6.016,0,0,1,.083-.865c0-.291.041-.578.041-.907.042-.249.042-.537.083-.824,0-.287.038-.537.038-.824.042-.287.042-.578.083-.865,0-.25.042-.537.042-.824.041-.25.041-.537.083-.782a5.152,5.152,0,0,1,.042-.824c0-.291.041-.537.041-.824.041-.25.041-.5.083-.786,0-.246.038-.533.038-.782.042-.246.042-.491.083-.782a5.218,5.218,0,0,1,.041-.782c0-.246.042-.5.042-.741.041-.249.041-.495.083-.744a5.241,5.241,0,0,1,.041-.782c0-.246.041-.491.041-.741a3.705,3.705,0,0,0,.042-.7c.041-.5.079-.99.121-1.444a4.443,4.443,0,0,0,.041-.741c.042-.208.042-.454.083-.7,0-.208.041-.453.041-.7.042-.246.042-.454.083-.7a4.143,4.143,0,0,1,.042-.7,3.775,3.775,0,0,1,.041-.662c0-.246.038-.453.038-.7.042-.208.042-.412.083-.661a3.705,3.705,0,0,1,.042-.657,3.709,3.709,0,0,1,.041-.657,3.771,3.771,0,0,1,.041-.661c0-.2.042-.412.042-.616.041-.208.041-.412.083-.662a3.381,3.381,0,0,1,.038-.616c.041-.412.041-.866.083-1.277a3.117,3.117,0,0,0,.041-.62c.041-.166.041-.412.083-.578a3.077,3.077,0,0,1,.041-.616,10.8,10.8,0,0,1,.083-1.194,3.119,3.119,0,0,1,.041-.62c0-.162.038-.37.038-.574a2.734,2.734,0,0,0,.041-.578c0-.208.042-.412.042-.578a2.68,2.68,0,0,0,.041-.574c0-.208.041-.374.041-.578,0-.166.042-.37.042-.578a2.311,2.311,0,0,0,.041-.533,2.718,2.718,0,0,0,.041-.578,2.155,2.155,0,0,0,.042-.537,2.31,2.31,0,0,0,.041-.533v-.125h-2.143c-.166-.041-.329,0-.5-.041h-2.018a2,2,0,0,0-.495-.042h-2.018a1.985,1.985,0,0,1-.5-.041H138.3a2,2,0,0,1-.495-.041h-1.523c-.412,0-.828,0-1.277-.042H134.1c-.042.208-.083.453-.125.662-.042.162-.042.37-.083.537-.042.2-.083.37-.121.574-.042.166-.042.37-.083.537a3.162,3.162,0,0,0-.083.578c-.041.2-.083.37-.125.575a2.759,2.759,0,0,0-.083.578c-.041.2-.079.37-.121.575s-.083.412-.125.578c-.042.208-.042.412-.083.62-.041.162-.083.37-.125.574a3.462,3.462,0,0,0-.079.62c-.041.2-.083.412-.125.575-.041.249-.083.412-.125.62s-.042.412-.083.616-.079.416-.121.62-.083.453-.125.616a4.08,4.08,0,0,0-.083.661,3.226,3.226,0,0,0-.125.616c-.038.249-.079.453-.121.661s-.083.453-.125.658-.083.453-.125.661-.079.453-.121.657m130.725,72.019h-3.79V111.716h-4.86v-3.624h27.56v3.624h-4.86v23.444h-3.79V111.716h-10.26Zm-11.288,0H237.509V108.092h13.513v3.582h-9.765v8.117h9.765v3.545h-9.765v8.114h9.765Zm-29.748,0h-3.749V108.092h3.749Zm.166-13.434,9.806-13.634h4.531l-10.093,13.43,9.848,13.638h-4.739Zm-20.848,13.434H196.8V108.092h7.539c3.133,0,5.48.741,7.127,2.226a8.37,8.37,0,0,1,2.475,6.507,7.767,7.767,0,0,1-2.06,5.562,7.466,7.466,0,0,1-5.317,2.388l7.377,10.385h-4.7l-8.654-12.569Zm0-13.022h1.939c2.6,0,4.572-.412,5.808-1.315a4.565,4.565,0,0,0,1.935-4.04,4.435,4.435,0,0,0-1.648-3.832,8.758,8.758,0,0,0-5.192-1.236h-2.842Zm-22.288,5.151-2.925,7.871h-4l10.177-27.068h3.669L195.4,135.161H191.24l-2.842-7.871Zm8.733-3.832-3.666-10.3-3.749,10.3Zm-25.338,11.7h-3.749V108.092h6.058a23.221,23.221,0,0,1,3.873.246,6.945,6.945,0,0,1,2.347.865,7.237,7.237,0,0,1,2.6,2.842,8.482,8.482,0,0,1,.949,3.956,7.828,7.828,0,0,1-2.43,6.016,9.642,9.642,0,0,1-6.677,2.263H161.7Zm0-14.5h2.721a6.915,6.915,0,0,0,4.244-1.069,4.091,4.091,0,0,0,1.319-3.378,4.174,4.174,0,0,0-1.36-3.42,6.169,6.169,0,0,0-4.077-1.115H161.7Zm82.978,33h-1.153v-1.523h1.153ZM127.3,148.425h.37a2.242,2.242,0,0,0,1.36-.287,1.209,1.209,0,0,0,.412-1.031,1.089,1.089,0,0,0-.37-.9,1.7,1.7,0,0,0-1.115-.333H127.3Zm-.042,4h.99a1.724,1.724,0,0,0,1.236-.328,1.21,1.21,0,0,0,.412-1.032,1.466,1.466,0,0,0-.412-1.153,1.661,1.661,0,0,0-1.236-.412h-.99Zm.616-7.747a3.189,3.189,0,0,1,2.1.62,2.352,2.352,0,0,1,.7,1.81,1.945,1.945,0,0,1-.249.99,1.773,1.773,0,0,1-.657.7,2.083,2.083,0,0,1,.99.782,2.379,2.379,0,0,1,.37,1.319,2.82,2.82,0,0,1-.25,1.2,1.958,1.958,0,0,1-.616.9,1.84,1.84,0,0,1-.866.5,4.03,4.03,0,0,1-1.36.166h-1.976v-8.982Zm11.5,8.982h-4.406v-8.982h4.406v1.194H136.2v2.679h3.17V149.7H136.2v2.721h3.17Zm3.79-2.6h1.115a1.868,1.868,0,0,0,.412,1.111,1.124,1.124,0,0,0,.944.412,1.215,1.215,0,0,0,.99-.412,1.491,1.491,0,0,0,.412-1.111,1.548,1.548,0,0,0-.287-.949,3.122,3.122,0,0,0-1.194-.616.431.431,0,0,0-.166-.041,2.761,2.761,0,0,1-1.523-.99,1.957,1.957,0,0,1-.333-.657,2.243,2.243,0,0,1-.121-.744,2.666,2.666,0,0,1,.658-1.852,2.157,2.157,0,0,1,1.689-.741,2.2,2.2,0,0,1,1.606.657,2.884,2.884,0,0,1,.661,1.772h-1.153a1.382,1.382,0,0,0-.374-.907,1.045,1.045,0,0,0-.782-.329,1.033,1.033,0,0,0-.824.37,1.456,1.456,0,0,0-.287.948,1.093,1.093,0,0,0,.2.741,2.351,2.351,0,0,0,1.073.537c.287.079.453.121.616.163a3.141,3.141,0,0,1,1.277.99,2.625,2.625,0,0,1,.412,1.523,2.944,2.944,0,0,1-.7,2.1,2.281,2.281,0,0,1-1.856.782,2.319,2.319,0,0,1-1.768-.741,3.233,3.233,0,0,1-.7-2.018m11.084,2.6h-1.236V145.87H151.4v-1.194h4.406v1.194h-1.564Zm10.959,0v-8.982h4.161v1.194H166.4v2.679h2.966V149.7H166.4v3.956Zm9.353-4.531a3.614,3.614,0,0,0,.246,1.315,2.564,2.564,0,0,0,.62,1.073,3.212,3.212,0,0,0,1.028.782,2.763,2.763,0,0,0,1.156.246,2.937,2.937,0,0,0,2.222-.986,3.62,3.62,0,0,0,.865-2.472,3.25,3.25,0,0,0-.824-2.226,3.148,3.148,0,0,0-1.028-.824,2.983,2.983,0,0,0-1.236-.25,2.767,2.767,0,0,0-1.156.25,2.59,2.59,0,0,0-.945.7,3.21,3.21,0,0,0-.7,1.073,3.787,3.787,0,0,0-.246,1.319m-1.277-.042a5.224,5.224,0,0,1,.329-1.772,5.447,5.447,0,0,1,.99-1.527,4.625,4.625,0,0,1,1.4-.986,4.124,4.124,0,0,1,1.61-.329,4.543,4.543,0,0,1,1.689.329,5.21,5.21,0,0,1,1.357.986,4.035,4.035,0,0,1,.99,1.527,4.974,4.974,0,0,1,.329,1.772,4.789,4.789,0,0,1-.287,1.769,3.9,3.9,0,0,1-.824,1.443,4.132,4.132,0,0,1-6.47,0,3.893,3.893,0,0,1-.824-1.443,5.182,5.182,0,0,1-.287-1.769m13.8.246h.62a3.289,3.289,0,0,0,1.893-.453,1.516,1.516,0,0,0,.62-1.319,1.448,1.448,0,0,0-.537-1.277,2.616,2.616,0,0,0-1.689-.412h-.907Zm0,4.327h-1.236v-8.982h2.43a3.365,3.365,0,0,1,2.35.741,2.763,2.763,0,0,1,.824,2.143,2.652,2.652,0,0,1-.7,1.855,2.434,2.434,0,0,1-1.731.782l2.43,3.461h-1.564l-2.8-4.161Zm16.892-3.254v3.254h-1.236v-3.337l-2.6-5.646h1.36L203.4,149l1.852-4.327h1.36Zm6.47-1.277a4.736,4.736,0,0,0,.2,1.315,3.177,3.177,0,0,0,.662,1.073,3.516,3.516,0,0,0,.99.782,3.069,3.069,0,0,0,1.194.246,2.8,2.8,0,0,0,2.184-.986,3.472,3.472,0,0,0,.9-2.472,3.823,3.823,0,0,0-.2-1.2,5.2,5.2,0,0,0-.62-1.028,3.152,3.152,0,0,0-1.028-.824,2.982,2.982,0,0,0-1.236-.25,2.766,2.766,0,0,0-1.156.25,2.287,2.287,0,0,0-.945.7,3.21,3.21,0,0,0-.7,1.073,3.781,3.781,0,0,0-.246,1.319m-1.277-.042a5.224,5.224,0,0,1,.329-1.772,5.44,5.44,0,0,1,.99-1.527,4.149,4.149,0,0,1,1.4-.986,4.093,4.093,0,0,1,1.606-.329,4.175,4.175,0,0,1,1.648.329,4.687,4.687,0,0,1,1.4.986,4.035,4.035,0,0,1,.99,1.527,4.973,4.973,0,0,1,.329,1.772,4.789,4.789,0,0,1-.287,1.769,4.505,4.505,0,0,1-.824,1.443,4.086,4.086,0,0,1-3.254,1.523,4.1,4.1,0,0,1-1.772-.37,4.215,4.215,0,0,1-1.444-1.153,3.9,3.9,0,0,1-.824-1.443,5.181,5.181,0,0,1-.287-1.769m12.44-4.41h1.239V150.4a2.92,2.92,0,0,0,.37,1.689,1.369,1.369,0,0,0,1.153.45,1.281,1.281,0,0,0,1.111-.45,2.958,2.958,0,0,0,.333-1.689v-5.729h1.236v5.687a6.4,6.4,0,0,1-.083,1.4,2.733,2.733,0,0,1-.329.866,2.5,2.5,0,0,1-.949.907,2.422,2.422,0,0,1-1.277.287,2.913,2.913,0,0,1-1.4-.287,2.242,2.242,0,0,1-.949-.907,2.706,2.706,0,0,1-.329-.782,6.271,6.271,0,0,1-.125-1.481Zm11.167,8.982h-1.153v-1.523h1.153Zm6.178,0h-1.194v-1.523h1.194Z" transform="translate(-89.52 -34.92)" fill="#fff" fill-rule="evenodd"/>
    <path id="Path_86" data-name="Path 86" d="M61.018,116.6H57.266V93.156h-4.86V89.528H65.878v3.628h-4.86ZM35.6,108.812h3.378a5.281,5.281,0,0,0,1.194,3.337,3.583,3.583,0,0,0,2.883,1.277,3.984,3.984,0,0,0,3.133-1.277,4.641,4.641,0,0,0,1.152-3.337,4.185,4.185,0,0,0-.865-2.845,7.819,7.819,0,0,0-3.586-1.893,1.98,1.98,0,0,0-.491-.125,8.255,8.255,0,0,1-4.739-3.008,9.649,9.649,0,0,1-.99-1.935,7.943,7.943,0,0,1-.329-2.226,8.068,8.068,0,0,1,1.976-5.646,6.933,6.933,0,0,1,5.234-2.143A6.435,6.435,0,0,1,48.37,90.93,8.164,8.164,0,0,1,50.388,96.2H46.844a3.709,3.709,0,0,0-1.028-2.592,3.486,3.486,0,0,0-4.947.079,4.218,4.218,0,0,0-.944,2.887,3.519,3.519,0,0,0,.162,1.153,2.843,2.843,0,0,0,.537.986,6.358,6.358,0,0,0,3.3,1.652c.782.2,1.4.412,1.814.533a8.414,8.414,0,0,1,3.911,2.925,8.016,8.016,0,0,1,1.319,4.614,9.09,9.09,0,0,1-2.139,6.307,7.3,7.3,0,0,1-5.687,2.43,7.05,7.05,0,0,1-5.438-2.309,8.98,8.98,0,0,1-2.1-6.054M32.34,116.6H18.827V89.528H32.34v3.586H22.617v8.114H32.34v3.545H22.617v8.117H32.34ZM5.6,89.528c2.759,0,4.86.62,6.345,1.9a6.883,6.883,0,0,1,2.143,5.521,6.3,6.3,0,0,1-.7,2.966,5.574,5.574,0,0,1-2.059,2.1,5.406,5.406,0,0,1,3.008,2.3,7.148,7.148,0,0,1,1.111,4.04,9.316,9.316,0,0,1-.657,3.541,8.039,8.039,0,0,1-1.893,2.762,7.57,7.57,0,0,1-2.679,1.523,15.992,15.992,0,0,1-4.2.412H0V89.528Zm-1.9,23.4H6.674a6.08,6.08,0,0,0,3.832-.99,3.859,3.859,0,0,0,1.236-3.129,4.454,4.454,0,0,0-1.277-3.5,5.5,5.5,0,0,0-3.79-1.194H3.707Zm.041-12.074H4.943a7.189,7.189,0,0,0,4.164-.9,3.589,3.589,0,0,0,1.236-3.05,3.368,3.368,0,0,0-1.156-2.8,5.57,5.57,0,0,0-3.42-.9H3.749ZM57.64,77.787h84.13v2.762H57.64Zm48.408-13.759h-1.277a12.309,12.309,0,0,1-1.236-.041h-3.79a12.309,12.309,0,0,1-1.236-.041H93.442a12.216,12.216,0,0,1-1.236-.042c-.412.042-.866.042-1.278.042-.865,0-1.689-.042-2.555-.042h-3.79c-.454,0-.866,0-1.319-.041a12.281,12.281,0,0,1-1.236,0H75.643c-.453,0-.865-.042-1.319,0-.412,0-.865-.042-1.277-.042H66.619c-.453,0-.865,0-1.319-.041-.412.041-.865.041-1.277.041-.412-.041-.862-.041-1.273-.041H58.585V63.9c0,.125-.041.287-.041.412a1.528,1.528,0,0,1-.038.412v.37c0,.166-.042.287-.042.454v.37c0,.166-.041.287-.041.453v.412c0,.125-.041.287-.041.412a1.384,1.384,0,0,1-.042.412v.412c0,.166-.041.287-.041.412,0,.166-.042.329-.042.453V69.3a1.537,1.537,0,0,0-.041.412v.453c0,.125-.041.287-.041.412,0,.166-.042.329-.042.453a1.846,1.846,0,0,1-.038.454v.453a1.385,1.385,0,0,1-.042.412V72.8a1.669,1.669,0,0,0-.041.453c0,.163-.041.287-.041.453v.454c0,.121-.042.287-.042.453v.45a1.7,1.7,0,0,0-.041.454,1.854,1.854,0,0,0-.041.453v.166h.287c.907,0,1.856,0,2.762-.041h6.919c1.4,0,2.762,0,4.123-.041h1.4c1.814.041,3.669,0,5.479,0H91.091c.453,0,.907.041,1.36,0h4.04c.453,0,.9.041,1.357,0,.453.041.907.041,1.36.041s.907,0,1.319-.041c.453,0,.907.041,1.36.041H108.6c.453,0,.907.041,1.36,0,.453,0,.907.041,1.319,0h1.357c.412,0,.865,0,1.319.041h5.317c.453,0,.9.042,1.357,0,.412.042.865.042,1.319.042h5.317a7.011,7.011,0,0,0,1.319,0c.412,0,.865.041,1.315,0,.412,0,.865,0,1.319.041h2.638c.412,0,.865.041,1.319,0h1.277c.453.041.865.041,1.319.041h4.161a.153.153,0,0,0-.041-.125c-.041-.166-.125-.287-.163-.453a1.469,1.469,0,0,1-.166-.453c-.083-.125-.125-.287-.208-.412a1.983,1.983,0,0,0-.163-.453,1.7,1.7,0,0,0-.166-.412,2.18,2.18,0,0,0-.163-.453c-.041-.125-.125-.287-.166-.454a1.657,1.657,0,0,1-.166-.412,1.907,1.907,0,0,1-.162-.453,1.188,1.188,0,0,1-.166-.412c-.083-.121-.125-.287-.2-.412-.041-.162-.083-.287-.125-.412a1.942,1.942,0,0,1-.166-.454,1.121,1.121,0,0,1-.162-.412,3.844,3.844,0,0,1-.166-.412,1.7,1.7,0,0,1-.166-.412c-.038-.121-.121-.287-.163-.412a1.651,1.651,0,0,1-.166-.412,60.931,60.931,0,0,0-.329-.824,2.863,2.863,0,0,0-.166-.412,1.314,1.314,0,0,0-.163-.37c-.041-.166-.083-.287-.125-.412a1.221,1.221,0,0,1-.166-.412,1.308,1.308,0,0,1-.163-.412,1.463,1.463,0,0,0-.166-.37,3.062,3.062,0,0,0-.163-.412c-.083-.166-.125-.329-.208-.5-1.277-.042-2.6-.042-3.915-.042a12.31,12.31,0,0,1-1.236-.041h-3.665c-1.236-.041-2.471-.041-3.707-.041a12.223,12.223,0,0,1-1.236-.042h-2.471a12.385,12.385,0,0,1-1.24-.041,12.284,12.284,0,0,1-1.236,0h-2.513a12.223,12.223,0,0,1-1.236-.042H112.31c-.453,0-.865,0-1.277-.038a17.289,17.289,0,0,1-1.976,0ZM60.44,34.733a2.917,2.917,0,0,0-.041.578,2.661,2.661,0,0,0-.042.574,2.916,2.916,0,0,0-.041.578,3.059,3.059,0,0,0-.042.616,2.916,2.916,0,0,0-.041.578,3.119,3.119,0,0,0-.041.62c0,.2-.038.37-.038.616,0,.166-.041.37-.041.578s-.041.412-.041.616a3.1,3.1,0,0,1-.042.62c0,.412-.041.865-.083,1.277a3.08,3.08,0,0,0-.041.616,3.544,3.544,0,0,0-.041.661c0,.2-.042.454-.042.658a3.655,3.655,0,0,0-.038.661,3.269,3.269,0,0,0-.042.657,3.544,3.544,0,0,0-.041.661c-.041.45-.083.9-.083,1.357a3.545,3.545,0,0,0-.041.661,4.17,4.17,0,0,0-.042.7,4.22,4.22,0,0,0-.041.7,4.24,4.24,0,0,0-.041.7c-.042.246-.042.5-.083.7a4.856,4.856,0,0,1-.038.741,4.456,4.456,0,0,1-.042.744,4.2,4.2,0,0,1-.041.7c0,.246-.042.5-.042.741a4.464,4.464,0,0,0-.041.741,5.267,5.267,0,0,0-.041.786,4.385,4.385,0,0,0-.042.741,5.214,5.214,0,0,0-.041.782c-.042.537-.079,1.032-.125,1.565a5.661,5.661,0,0,1-.038.782c0,.249-.041.537-.041.786a5.7,5.7,0,0,0-.042.824,5.194,5.194,0,0,0-.041.824c-.041.246-.041.533-.083.824v.121a.376.376,0,0,0,.208.041H67.4a3.072,3.072,0,0,0,.62,0c.208,0,.412.042.62.042a7.778,7.778,0,0,1,.987,0H76.1v-.163c0-.249-.042-.537-.042-.824v-.786a5.461,5.461,0,0,1-.041-.824c0-.246-.042-.533-.042-.782s-.041-.533-.041-.782v-.782a4.949,4.949,0,0,1-.041-.782c0-.25-.042-.5-.042-.741s-.038-.5-.038-.786v-.741a4.408,4.408,0,0,1-.042-.741,4.413,4.413,0,0,0-.041-.74v-.7a4.42,4.42,0,0,1-.041-.741c0-.246-.042-.454-.042-.7v-.7c0-.246-.041-.491-.041-.7,0-.246-.041-.453-.041-.7a3.971,3.971,0,0,0-.042-.7v-.7a3.73,3.73,0,0,0-.041-.657v-.661c0-.2-.042-.454-.042-.657s-.038-.454-.038-.662v-.657a3.33,3.33,0,0,1-.041-.661,3.059,3.059,0,0,0-.042-.616V41.532a3.118,3.118,0,0,1-.041-.62c0-.2-.042-.412-.042-.616v-.62a3.08,3.08,0,0,1-.041-.616,2.917,2.917,0,0,0-.041-.578v-.616c0-.166-.042-.374-.042-.578v-.62c0-.162-.041-.37-.041-.574v-.578a2.51,2.51,0,0,1-.041-.574v-.578a2.555,2.555,0,0,1-.038-.537v-.575a2.36,2.36,0,0,1-.041-.537c0-.37-.042-.741-.042-1.115a2.313,2.313,0,0,0-.041-.533v-.537a2.172,2.172,0,0,0-.041-.537v-.537a2.3,2.3,0,0,0-.042-.533V27.894a2.157,2.157,0,0,1-.041-.537v-.491a2,2,0,0,1-.042-.5v-.495c-.041-.329-.041-.7-.083-1.032V23.9a2,2,0,0,1-.042-.5V23.28c-.038.042-.121,0-.162,0H72.552a1.7,1.7,0,0,1-.453-.041H70.7a1.986,1.986,0,0,1-.5-.042H68.35a1.55,1.55,0,0,1-.454-.041H66a2,2,0,0,0-.453-.038H64.106a1.7,1.7,0,0,1-.454-.041h-1.44a1.827,1.827,0,0,1-.454-.041H61.1v.574a1.985,1.985,0,0,1-.041.5V24.6a2.179,2.179,0,0,0-.038.5c0,.2-.041.329-.041.5a2.139,2.139,0,0,1-.041.533v.495c0,.166-.042.329-.042.5,0,.208-.041.37-.041.537a2.529,2.529,0,0,1-.042.537v.491a10.125,10.125,0,0,0-.083,1.073c0,.2-.042.37-.042.537a2.14,2.14,0,0,1-.041.533v.537a2.965,2.965,0,0,0-.038.578,2.294,2.294,0,0,0-.042.533,2.717,2.717,0,0,1-.041.578v.578c-.042.163-.042.37-.083.533Z" transform="translate(0 -16.357)" fill="#fff" fill-rule="evenodd"/>
    <path id="Path_87" data-name="Path 87" d="M324.126,47.957h16.48v2.717H324.991ZM317.081,36.3h-2.3c-.374,0-.786-.038-1.156-.038h-1.153a11.1,11.1,0,0,1-1.153-.041h-2.309c-1.153-.041-2.305-.041-3.461-.041a9.887,9.887,0,0,1-1.111-.042c-1.565,0-3.133-.041-4.656-.041-.37,0-.782-.042-1.153-.042h-1.194a11.136,11.136,0,0,1-1.156-.041,10.69,10.69,0,0,1-1.153,0h-2.3c-.412,0-.786-.041-1.2-.041h-2.3a11.42,11.42,0,0,0-1.194-.042h-1.156a11.494,11.494,0,0,1-1.194-.041,10.691,10.691,0,0,1-1.153,0H282.27c-.412-.038-.786-.038-1.2-.038H279.92c-.412,0-.782-.041-1.194-.041h-1.153c-.786,0-1.568,0-2.392-.041h-1.153c-1.194,0-2.388-.042-3.582-.042H268.1c-.412,0-.824-.041-1.194-.041h-2.388c-.374,0-.786-.041-1.2-.041h-.2v.824a.9.9,0,0,1,.042.329v.37a1.035,1.035,0,0,1,.041.333v.37a1,1,0,0,1,.042.329v.37c.038.125,0,.249.038.37v.7a1.12,1.12,0,0,1,.041.37v.37c0,.125.042.246.042.37v.329c0,.166.041.291.041.412v.37c.042.125,0,.25.042.37v.744a1.122,1.122,0,0,1,.041.37,1.132,1.132,0,0,0,.041.37v.412a1.124,1.124,0,0,0,.042.37v.37a1.142,1.142,0,0,1,.042.37v.412a1.113,1.113,0,0,0,.042.37v.125h.246a6.575,6.575,0,0,0,1.277,0,12.726,12.726,0,0,0,1.277.041h5.026c.412,0,.824,0,1.277.041h6.3a12.221,12.221,0,0,0,1.236.042h3.79a11.9,11.9,0,0,0,1.236.041h3.749c.412,0,.824.041,1.236.041h3.752a36.6,36.6,0,0,1,2.471.042H299c.412.038.824.038,1.236.038H303.9a12.223,12.223,0,0,0,1.236.042h3.711c1.236.041,2.43.041,3.665.041a12.289,12.289,0,0,0,1.236,0c1.236.041,2.43.041,3.665.083h2.434c.412,0,.824.041,1.236.041h2.43a11.383,11.383,0,0,0,1.194,0,11.817,11.817,0,0,0,1.194.042h1.236a11.5,11.5,0,0,0,1.194.041h2.434c.37,0,.782.041,1.194.041h3.624a11.022,11.022,0,0,0,1.194.042h3.832c-.041,0-.041-.042-.079-.083a4.394,4.394,0,0,0-.374-.782c-.038-.125-.121-.249-.163-.374-.083-.121-.125-.246-.208-.37-.041-.121-.121-.246-.162-.37a1.4,1.4,0,0,1-.166-.37c-.083-.125-.125-.246-.2-.37s-.125-.246-.208-.37a1.45,1.45,0,0,0-.166-.37,1.654,1.654,0,0,1-.163-.37,3.229,3.229,0,0,1-.208-.37c-.041-.125-.121-.208-.162-.333-.083-.121-.125-.246-.208-.37a1.586,1.586,0,0,0-.163-.37,2.409,2.409,0,0,0-.166-.329,1.449,1.449,0,0,1-.166-.37c-.079-.125-.121-.249-.2-.37-.042-.125-.125-.208-.166-.333-.079-.121-.121-.246-.2-.37a2.447,2.447,0,0,0-.166-.329c-.041-.125-.125-.246-.162-.37s-.125-.208-.166-.329c-.125-.25-.246-.454-.37-.7a1.286,1.286,0,0,0-.166-.329c-.041-.121-.125-.246-.163-.37A2.424,2.424,0,0,0,335.7,37a2.692,2.692,0,0,1-.166-.329c-.041-.041-.041-.083-.079-.125h-2.475c-.37,0-.741-.041-1.111-.041H330.72a9.988,9.988,0,0,1-1.115-.042c-1.153,0-2.263,0-3.416-.041h-2.267c-.37,0-.741-.042-1.153-.042h-1.156c-.37,0-.741-.041-1.111-.041h-1.153a11.1,11.1,0,0,1-1.156-.042ZM261.792,9.93c0,.329.041.7.041,1.028a1.972,1.972,0,0,0,.042.5v.537c0,.166.041.328.041.495a2.171,2.171,0,0,0,.042.537,2.31,2.31,0,0,0,.041.533v1.073a2.365,2.365,0,0,1,.038.537c0,.163.042.37.042.533,0,.37.041.744.041,1.115a2.312,2.312,0,0,0,.041.533,2.508,2.508,0,0,0,.042.578V18.5a2.494,2.494,0,0,1,.041.574c0,.208.042.37.042.578v.578c0,.2.041.412.041.574,0,.208.041.412.041.62V22c0,.208.038.412.038.62.041.616.083,1.194.083,1.814.041.2.041.412.083.616a3.525,3.525,0,0,0,0,.661c0,.2.042.412.042.616s.041.412.041.62V27.6c.042.208.042.453.083.657v.661a3.505,3.505,0,0,1,.041.657c0,.208.042.454.042.662a3.612,3.612,0,0,0,.038.657v.7a3.963,3.963,0,0,1,.041.7,3.705,3.705,0,0,1,.042.7c0,.208.041.453.041.661,0,.287.042.574.042.865h1.319a2.323,2.323,0,0,0,.537,0,1.339,1.339,0,0,0,.575,0,2.529,2.529,0,0,0,.537.041h3.212a4.454,4.454,0,0,0,.744.042h3.337a3.164,3.164,0,0,0,.575.038h3.915a2.343,2.343,0,0,0,.537.041h.741a.3.3,0,0,0-.042-.162,3.608,3.608,0,0,0-.083-.661c-.038-.246-.079-.5-.121-.7,0-.249-.083-.453-.083-.7-.042-.208-.083-.453-.125-.7a4.066,4.066,0,0,0-.083-.657c-.038-.208-.079-.453-.121-.662-.042-.246-.042-.453-.083-.7a3.12,3.12,0,0,1-.083-.62c-.041-.246-.083-.45-.125-.657a4.007,4.007,0,0,1-.079-.657c-.041-.208-.083-.412-.125-.662a3.136,3.136,0,0,0-.083-.616,3.184,3.184,0,0,1-.083-.62c-.041-.2-.083-.412-.121-.616a3.123,3.123,0,0,0-.083-.62,3.105,3.105,0,0,0-.083-.616,3.184,3.184,0,0,0-.083-.62,3.153,3.153,0,0,1-.083-.62c-.041-.2-.079-.37-.121-.574a3.158,3.158,0,0,0-.083-.62,3.171,3.171,0,0,0-.083-.574,3.233,3.233,0,0,1-.083-.578,3.156,3.156,0,0,1-.083-.578c-.042-.2-.079-.412-.121-.575a2.782,2.782,0,0,0-.083-.578,2.813,2.813,0,0,0-.083-.578,3.171,3.171,0,0,0-.083-.575,2.409,2.409,0,0,0-.083-.537c0-.162-.038-.37-.038-.537-.041-.2-.083-.37-.125-.574-.041-.166-.041-.37-.083-.537a2.389,2.389,0,0,0-.083-.537c0-.163-.042-.37-.042-.533-.041-.166-.079-.374-.121-.537,0-.166-.042-.329-.042-.495a2.833,2.833,0,0,1-.083-.537c-.083-.37-.125-.7-.166-1.028-.041-.208-.041-.333-.079-.537a2.059,2.059,0,0,1-.083-.5,2.838,2.838,0,0,0-.083-.537c-.042-.162-.042-.287-.083-.491,0-.166-.041-.333-.041-.5a1.734,1.734,0,0,1-.083-.453,2.246,2.246,0,0,1-.079-.5c-.041-.166-.041-.329-.083-.5,0-.166-.041-.329-.041-.495a2.031,2.031,0,0,1-.083-.5c-.041-.121-.041-.287-.083-.45s-.041-.333-.083-.5c0-.125-.038-.291-.038-.453-.041-.166-.041-.329-.083-.453,0-.166-.041-.329-.041-.5-.041-.125-.041-.287-.083-.453s-.041-.287-.083-.453c0-.125-.041-.287-.041-.454a7.036,7.036,0,0,0-.162-.907c0-.121-.042-.287-.042-.454-.041-.121-.041-.287-.083-.412,0-.162-.041-.287-.041-.45-.041-.166-.041-.291-.083-.453V.29h-1.44a1.841,1.841,0,0,0-.454-.041h-1.36a1.383,1.383,0,0,1-.412-.042h-.907a1.393,1.393,0,0,1-.412-.041.842.842,0,0,1-.453,0h-1.772a1.379,1.379,0,0,0-.412-.041h-.9c-.166,0-.291-.042-.453-.042h-.907a1.38,1.38,0,0,1-.412-.041,1.652,1.652,0,0,1-.453,0h-.907A1.385,1.385,0,0,1,261.833,0h-.62c0,.042.041.042.041.083V.536c0,.125.041.291.041.412a1.527,1.527,0,0,0,.042.454v.453c0,.166.041.329.041.453v.453c0,.166.042.287.042.454v.453c0,.162.041.329.041.453v.5a1.652,1.652,0,0,1,.042.45,1.845,1.845,0,0,1,.042.454,2.176,2.176,0,0,0,.038.495,2,2,0,0,0,.041.5v.453a1.986,1.986,0,0,0,.042.5v.495c0,.163.041.329.041.491a1.971,1.971,0,0,0,.042.5v.495a2,2,0,0,1,.041.5" transform="translate(-185.49 0.001)" fill="#fff" fill-rule="evenodd"/>
  </g>
</svg>
