<svg id="Group_37" data-name="Group 37" xmlns="http://www.w3.org/2000/svg" width="37.219" height="37.221" viewBox="0 0 37.219 37.221">
  <path id="Path_30" data-name="Path 30" d="M53.532,17.687a2.182,2.182,0,1,0,2.182,2.182,2.182,2.182,0,0,0-2.182-2.182" transform="translate(-25.069 -11.04)" fill="#DA8A44"/>
  <path id="Path_31" data-name="Path 31" d="M52.831,18.976A9.165,9.165,0,1,0,62,28.142a9.177,9.177,0,0,0-9.166-9.166m0,15.037A5.872,5.872,0,1,1,58.7,28.142a5.877,5.877,0,0,1-5.871,5.871" transform="translate(-34.069 -9.532)" fill="#DA8A44"/>
  <path id="Path_32" data-name="Path 32" d="M65.283,51.847H50.424A11.192,11.192,0,0,1,39.245,40.666V25.8A11.192,11.192,0,0,1,50.424,14.626H65.283A11.192,11.192,0,0,1,76.464,25.8V40.666A11.193,11.193,0,0,1,65.283,51.847M50.424,18.128A7.687,7.687,0,0,0,42.745,25.8V40.666a7.689,7.689,0,0,0,7.679,7.679H65.283a7.687,7.687,0,0,0,7.679-7.679V25.8a7.685,7.685,0,0,0-7.679-7.677Z" transform="translate(-39.245 -14.626)" fill="#DA8A44"/>
</svg>