<svg id="Group_35" data-name="Group 35" xmlns="http://www.w3.org/2000/svg" xmlns:xlink="http://www.w3.org/1999/xlink" width="44.78" height="28.95" viewBox="0 0 44.78 28.95">
  <defs>
    <clipPath id="clip-path">
      <rect id="Rectangle_71" data-name="Rectangle 71" width="44.78" height="28.95" fill="#da8a44"/>
    </clipPath>
  </defs>
  <g id="Group_31" data-name="Group 31" transform="translate(0 0)" clip-path="url(#clip-path)">
    <path id="Path_26" data-name="Path 26" d="M2.915,28.95A2.894,2.894,0,0,1,0,26.084V2.866A2.894,2.894,0,0,1,2.915,0h38.95A2.894,2.894,0,0,1,44.78,2.866V26.084a2.894,2.894,0,0,1-2.915,2.866ZM42.04,27.439,28.188,15.975l-3.672,3.272a3.2,3.2,0,0,1-4.25,0L16.7,16.071h-.222L2.741,27.439Zm1.231-.948V2.862h-.415l-.087.077L29.334,14.945Zm-41.76,0L15.446,14.945,1.51,2.491Zm19.756-8.363a1.862,1.862,0,0,0,2.247,0L42.108,1.51H2.673Z" fill="#da8a44"/>
  </g>
</svg>
