<svg id="Group_34" data-name="Group 34" xmlns="http://www.w3.org/2000/svg" xmlns:xlink="http://www.w3.org/1999/xlink" width="36.75" height="36.777" viewBox="0 0 36.75 36.777">
  <defs>
    <clipPath id="clip-path">
      <rect id="Rectangle_72" data-name="Rectangle 72" width="36.75" height="36.777" fill="#da8a44"/>
    </clipPath>
  </defs>
  <g id="Group_33" data-name="Group 33">
    <g id="Group_32" data-name="Group 32" clip-path="url(#clip-path)">
      <path id="Path_27" data-name="Path 27" d="M26.117,36.777a18.481,18.481,0,0,1-6.839-2.024A37.15,37.15,0,0,1,7,25.141,33.566,33.566,0,0,1,1.014,15.123,14.312,14.312,0,0,1,.026,9.38,5.442,5.442,0,0,1,1.654,5.932L4.381,3.2a3.59,3.59,0,0,1,2.46-1.081A3.406,3.406,0,0,1,9.26,3.2c.5.459,1.006.965,1.459,1.459.209.251.47.512.721.764l2.14,2.182a3.525,3.525,0,0,1,1.168,2.5,3.614,3.614,0,0,1-1.166,2.5l-.672.672c-.565.565-1.205,1.205-1.839,1.8l-.163.152.087.205a14.722,14.722,0,0,0,2.185,3.474A26.888,26.888,0,0,0,19.766,24.9l.016.01.011.005c.092.046.189.1.282.154a5.507,5.507,0,0,0,.506.262l.006,0,.005,0c.109.064.217.118.313.166s.2.1.293.156l.214.128L24.105,23.1a3.486,3.486,0,0,1,2.46-1.123A3.342,3.342,0,0,1,29.02,23.09l4.371,4.371a3.353,3.353,0,0,1,0,4.965,7.666,7.666,0,0,1-1.017.978l-.017.014a15.114,15.114,0,0,0-1.405,1.446l-.042.043a5.637,5.637,0,0,1-4.3,1.871ZM6.8,3.625a2.065,2.065,0,0,0-1.442.681L2.671,6.992A4.173,4.173,0,0,0,1.488,9.538a11.317,11.317,0,0,0,.9,5.095,32.886,32.886,0,0,0,5.76,9.574,35.618,35.618,0,0,0,11.772,9.232,19.036,19.036,0,0,0,6.322,1.919h.406A4.049,4.049,0,0,0,29.866,34l.013-.015a13.619,13.619,0,0,1,1.179-1.264c.107-.1.208-.2.308-.3.076-.076.152-.149.227-.222l.021-.02a6.615,6.615,0,0,0,.687-.734l0-.005,0,0a1.926,1.926,0,0,0,.021-2.948L27.953,24.1l-.029-.024a2.125,2.125,0,0,0-1.36-.645,2.23,2.23,0,0,0-1.442.681l-2.728,2.728a1.374,1.374,0,0,1-.949.452,1.4,1.4,0,0,1-.613-.176l-.007,0-.009-.006a.364.364,0,0,0-.1-.048l-.008,0-.008,0c-.075-.039-.152-.082-.232-.127a5.577,5.577,0,0,0-.517-.268l-.01,0c-.1-.057-.2-.114-.312-.172-.2-.111-.413-.225-.622-.355a28.726,28.726,0,0,1-6.93-6.309A16.226,16.226,0,0,1,9.57,15.742l-.024-.06-.013-.013-.007-.026a1.3,1.3,0,0,1,.352-1.4L9.92,14.2c.673-.631,1.3-1.262,1.972-1.931l.672-.672a2.124,2.124,0,0,0,.723-1.485,2.123,2.123,0,0,0-.723-1.485l-2.9-2.9c-.17-.17-.33-.335-.488-.5-.313-.322-.608-.626-.949-.939A2.042,2.042,0,0,0,6.8,3.625M29.294,17.389a.768.768,0,0,1-.735-.615,10.209,10.209,0,0,0-2.946-5.632A10.618,10.618,0,0,0,19.993,8.2a.741.741,0,0,1-.525-.295.681.681,0,0,1-.1-.541l0-.02a.682.682,0,0,1,.675-.592.763.763,0,0,1,.159.017,11.6,11.6,0,0,1,6.427,3.352,12.434,12.434,0,0,1,3.356,6.424.739.739,0,0,1-.541.837l-.011,0Zm6.679-.333a.7.7,0,0,1-.658-.576l-.014-.087,0-.022a18.536,18.536,0,0,0-5.1-9.8,18.289,18.289,0,0,0-9.91-5.127.683.683,0,0,1-.476-.284.7.7,0,0,1-.1-.552A.716.716,0,0,1,20.382,0a.759.759,0,0,1,.157.017,19.776,19.776,0,0,1,16.2,16.19.744.744,0,0,1-.54.844l-.011,0h-.159a.581.581,0,0,1-.059,0" transform="translate(0)" fill="#da8a44"/>
    </g>
  </g>
</svg>
